#!OML:ASF H:\Dans Jumps\Project 1\Capture day 1\Session 1\subject.ASF
:FULLY-SPECIFIED
:DEGREES
590
root 0.38565 17.7473 6.79304 7.71226 -1.16151 -1.91247
lowerback -4.68401 0.75895 6.94955e-005
upperback 1.92066 0.976509 0.842251
thorax 4.59764 0.471112 0.95447
lowerneck -10.8988 -0.0730463 -1.51056
upperneck 28.064 -0.0659206 1.10545
head 10.8151 -0.0549587 0.651452
rclavicle -5.09386e-015 8.60986e-015
rhumerus -27.3144 -14.8708 -80.0334
rradius 28.7409
rwrist 29.9791
rhand -20.1885 -26.4131
rfingers 7.12502
rthumb 6.15784 -56.3036
lclavicle -5.09386e-015 8.60986e-015
lhumerus -28.0245 5.54613 83.2119
lradius 21.6077
lwrist 9.29211
lhand -27.4527 -7.08811
lfingers 7.12502
lthumb -0.857272 22.8899
rfemur -11.8942 -3.25898 20.7258
rtibia 18.5207
rfoot -12.8123 3.1098
rtoes 17.442
lfemur -10.1701 6.03342 -17.1596
ltibia 16.4878
lfoot -9.00149 8.96683
ltoes 1.5754
591
root 0.382335 17.7469 6.78941 7.71332 -1.14617 -1.911
lowerback -4.66787 0.750613 -0.00756635
upperback 1.92093 0.965155 0.860601
thorax 4.5885 0.465004 0.976491
lowerneck -10.875 -0.0820931 -1.52256
upperneck 27.7997 -0.0774876 1.11166
head 10.7113 -0.0600912 0.652738
rclavicle -2.95071e-016 -6.84565e-015
rhumerus -27.3081 -14.871 -80.0113
rradius 28.735
rwrist 29.982
rhand -20.2142 -26.414
rfingers 7.12502
rthumb 6.133 -56.3052
lclavicle -2.95071e-016 -6.84565e-015
lhumerus -27.9836 5.45804 83.4085
lradius 21.5431
lwrist 9.18862
lhand -27.3828 -6.75422
lfingers 7.12502
lthumb -0.789789 23.2241
rfemur -11.9162 -3.25008 20.7372
rtibia 18.5384
rfoot -12.8162 3.08935
rtoes 17.4574
lfemur -10.1826 6.0184 -17.1477
ltibia 16.48
lfoot -8.99908 8.96454
ltoes 1.58488
592
root 0.379106 17.7464 6.78574 7.71462 -1.13452 -1.91449
lowerback -4.65483 0.742139 -0.0112953
upperback 1.92425 0.953242 0.880938
thorax 4.58437 0.458679 0.998421
lowerneck -10.8475 -0.0910444 -1.53755
upperneck 27.5211 -0.0884704 1.11871
head 10.602 -0.0651571 0.654841
rclavicle -6.54436e-015 3.52843e-015
rhumerus -27.2931 -14.8825 -79.9921
rradius 28.717
rwrist 30.0065
rhand -20.2373 -26.4158
rfingers 7.12502
rthumb 6.11073 -56.3076
lclavicle -6.54436e-015 3.52843e-015
lhumerus -27.9468 5.38038 83.6042
lradius 21.4852
lwrist 9.05864
lhand -27.2775 -6.46308
lfingers 7.12502
lthumb -0.688078 23.5156
rfemur -11.9365 -3.23278 20.7534
rtibia 18.5507
rfoot -12.8153 3.0663
rtoes 17.4986
lfemur -10.1988 5.99867 -17.1303
ltibia 16.4802
lfoot -9.0036 8.97077
ltoes 1.63259
593
root 0.37603 17.746 6.78214 7.71638 -1.12604 -1.92051
lowerback -4.64673 0.733576 -0.0110099
upperback 1.93067 0.940914 0.901008
thorax 4.58633 0.452239 1.01791
lowerneck -10.8222 -0.0999038 -1.55396
upperneck 27.2336 -0.0996254 1.12831
head 10.4904 -0.0701393 0.658049
rclavicle -3.23646e-015 -2.21148e-015
rhumerus -27.2655 -14.9147 -79.9766
rradius 28.6805
rwrist 30.0584
rhand -20.2471 -26.4201
rfingers 7.12502
rthumb 6.10128 -56.3122
lclavicle -3.23646e-015 -2.21148e-015
lhumerus -27.9126 5.31451 83.7967
lradius 21.4202
lwrist 8.89897
lhand -27.1642 -6.28943
lfingers 7.12502
lthumb -0.578724 23.6895
rfemur -11.9563 -3.21124 20.7715
rtibia 18.5612
rfoot -12.8119 3.04368
rtoes 17.5528
lfemur -10.2155 5.9754 -17.1104
ltibia 16.4825
lfoot -9.00435 8.98274
ltoes 1.67436
594
root 0.373114 17.7455 6.77879 7.71489 -1.12147 -1.92259
lowerback -4.64096 0.724542 -0.0136796
upperback 1.94053 0.928192 0.919284
thorax 4.59321 0.445515 1.03725
lowerneck -10.8091 -0.109762 -1.5743
upperneck 26.9483 -0.112564 1.14317
head 10.3827 -0.0757274 0.663633
rclavicle -1.09269e-014 2.33572e-015
rhumerus -27.2248 -14.9656 -79.9639
rradius 28.6239
rwrist 30.1366
rhand -20.2422 -26.4234
rfingers 7.12502
rthumb 6.10597 -56.3154
lclavicle -1.09269e-014 2.33572e-015
lhumerus -27.8799 5.2472 83.9908
lradius 21.3531
lwrist 8.74052
lhand -27.0451 -6.20698
lfingers 7.12502
lthumb -0.463656 23.7723
rfemur -11.9722 -3.18981 20.7843
rtibia 18.5718
rfoot -12.809 3.02402
rtoes 17.6026
lfemur -10.2255 5.95129 -17.0953
ltibia 16.4821
lfoot -9.01032 8.99879
ltoes 1.75102
595
root 0.370471 17.7451 6.77571 7.71163 -1.1218 -1.91395
lowerback -4.63858 0.716124 -0.0237743
upperback 1.95188 0.916973 0.932403
thorax 4.60351 0.439378 1.05563
lowerneck -10.803 -0.121532 -1.59856
upperneck 26.6667 -0.128588 1.16324
head 10.2784 -0.0825334 0.671402
rclavicle 1.77664e-015 5.61567e-015
rhumerus -27.1787 -15.032 -79.9534
rradius 28.5519
rwrist 30.2291
rhand -20.2262 -26.4253
rfingers 7.12502
rthumb 6.12147 -56.3169
lclavicle 1.77664e-015 5.61567e-015
lhumerus -27.8527 5.1643 84.1911
lradius 21.291
lwrist 8.59231
lhand -26.9459 -6.16375
lfingers 7.12502
lthumb -0.367853 23.8157
rfemur -11.9881 -3.17563 20.7834
rtibia 18.5865
rfoot -12.8093 3.01529
rtoes 17.6468
lfemur -10.2268 5.93002 -17.0938
ltibia 16.4728
lfoot -9.00964 9.01481
ltoes 1.80586
596
root 0.367997 17.7448 6.77275 7.7064 -1.12525 -1.90072
lowerback -4.63623 0.709007 -0.0364884
upperback 1.96332 0.907797 0.942374
thorax 4.6139 0.434221 1.07239
lowerneck -10.8139 -0.134452 -1.63264
upperneck 26.3989 -0.147364 1.19674
head 10.183 -0.0900474 0.685375
rclavicle 1.09518e-014 2.18663e-015
rhumerus -27.1336 -15.1011 -79.9455
rradius 28.4714
rwrist 30.3169
rhand -20.2053 -26.4267
rfingers 7.12502
rthumb 6.14163 -56.3177
lclavicle 1.09518e-014 2.18663e-015
lhumerus -27.8293 5.05683 84.3996
lradius 21.2362
lwrist 8.4682
lhand -26.8369 -6.13087
lfingers 7.12502
lthumb -0.262552 23.8487
rfemur -12.0042 -3.16554 20.7765
rtibia 18.6069
rfoot -12.8142 3.01126
rtoes 17.6782
lfemur -10.2191 5.91409 -17.0986
ltibia 16.4519
lfoot -9.0085 9.02772
ltoes 1.88069
